<?xml version="1.0" encoding="UTF-8"?>
<svg width="135px" height="143px" viewBox="0 0 135 143" version="1.1" xmlns="http://www.w3.org/2000/svg" xmlns:xlink="http://www.w3.org/1999/xlink">
    <!-- Generator: Sketch 53.2 (72643) - https://sketchapp.com -->
    <title>Group</title>
    <desc>Created with Sketch.</desc>
    <g id="Page-1" stroke="none" stroke-width="1" fill="none" fill-rule="evenodd">
        <g id="logo" transform="translate(-99.000000, 0.000000)" fill="#000000" fill-rule="nonzero">
            <g id="Group" transform="translate(99.000000, 0.000000)">
                <path d="M6.9,69.7 C10.7,68.6 14.5,68 18.2,68 C33.4,68 41,76.8 41,94.5 C41,103.9 39.2,111.3 35.6,116.8 C32,122.3 27.2,125 21.1,125 C16.8,125 11.5,123.3 5.1,120 L0.5,136.4 C8.4,140.2 15.7,142.1 22.4,142.1 C34.4,142.1 43.7,137.7 50.5,129 C57.2,120.1 60.6,107.9 60.6,92.5 C60.6,86.2 59.9,80.7 58.4,75.8 C56.9,70.9 54.7,66.8 51.9,63.5 C49,60.2 45.5,57.6 41.3,55.9 C37.1,54.2 32.3,53.3 26.9,53.3 L24.7,53.3 L29.2,18.6 L59,18.6 L59,2.6 L15.1,2.6 L6.9,69.7 Z" id="Path"></path>
                <path d="M129.7,55.2 C132,50.2 133.1,43.4 133.1,34.9 C133.1,29 132.5,23.9 131.4,19.6 C130.3,15.3 128.6,11.8 126.3,9 C124,6.2 121,4.2 117.5,2.9 C113.9,1.6 109.6,0.9 104.6,0.9 C99.6,0.9 95.3,1.6 91.7,2.9 C88.1,4.2 85.1,6.3 82.8,9 C80.5,11.8 78.8,15.3 77.7,19.6 C76.6,23.9 76,29 76,34.9 C76,43.4 77.1,50.2 79.4,55.2 C81.7,59.8 85.5,63.4 91,65.7 C84.8,68 80.5,71.6 78.2,76.5 C75.9,81.4 74.7,89.5 74.7,100.5 C74.7,114.8 77.1,125.3 81.9,132 C86.7,138.7 94.2,142.1 104.6,142.1 C114.8,142.1 122.4,138.7 127.2,132 C132,125.3 134.4,114.8 134.4,100.5 C134.4,89.4 133.2,81.4 130.9,76.5 C128.6,71.6 124.3,68 118.1,65.7 C123.6,63.4 127.4,59.9 129.7,55.2 L129.7,55.2 Z M104.6,57.7 C97.7,57.7 94.3,50.6 94.3,36.3 C94.3,23.4 97.7,17 104.5,17 C111.3,17 114.8,23.5 114.8,36.5 C114.8,50.6 111.4,57.7 104.6,57.7 L104.6,57.7 Z M104.6,125.9 C96.9,125.9 93.1,117.9 93.1,101.9 C93.1,92.7 94,86.1 95.8,82 C97.6,77.9 100.5,75.8 104.5,75.8 C106.5,75.8 108.3,76.3 109.7,77.3 C111.2,78.3 112.4,79.9 113.3,82 C114.3,84.1 114.9,86.9 115.4,90.4 C115.8,93.8 116,98 116,102.8 C116,118.2 112.2,125.9 104.6,125.9 L104.6,125.9 Z" id="Shape"></path>
            </g>
        </g>
    </g>
</svg>