<?xml version="1.0" encoding="UTF-8"?>
<svg width="23px" height="41px" viewBox="0 0 23 41" version="1.1" xmlns="http://www.w3.org/2000/svg" xmlns:xlink="http://www.w3.org/1999/xlink">
    <!-- Generator: Sketch 53.2 (72643) - https://sketchapp.com -->
    <title>Path</title>
    <desc>Created with Sketch.</desc>
    <g id="Page-1" stroke="none" stroke-width="1" fill="none" fill-rule="evenodd">
        <g id="facebook2" fill-rule="nonzero" stroke="#FFFFFF">
            <path d="M21.5,0.8 L16.3,0.8 C10.5,0.8 6.7,4.7 6.7,10.6 L6.7,15.1 C6.7,15.1 6.7,15.1 6.7,15.1 L1.6,15.1 C1.1,15.1 0.8,15.5 0.8,15.9 L0.8,22.4 C0.8,22.9 1.2,23.2 1.6,23.2 L6.8,23.2 C6.8,23.2 6.8,23.2 6.8,23.2 L6.8,39.7 C6.8,40.2 7.2,40.5 7.6,40.5 L14.4,40.5 C14.9,40.5 15.2,40.1 15.2,39.7 L15.2,23.4 C15.2,23.4 15.2,23.4 15.2,23.4 L21.3,23.4 C21.8,23.4 22.1,23 22.1,22.6 L22.1,16 C22.1,15.8 22,15.6 21.9,15.4 C21.8,15.2 21.5,15.2 21.3,15.2 L15.2,15.2 C15.2,15.2 15.2,15.2 15.2,15.2 L15.2,11.4 C15.2,9.6 15.6,8.6 18.1,8.6 L21.6,8.6 C22.1,8.6 22.4,8.2 22.4,7.8 L22.4,1.6 C22.4,1.1 22,0.8 21.5,0.8 Z" id="Path"></path>
        </g>
    </g>
</svg>