<?xml version="1.0" encoding="UTF-8"?>
<svg width="42px" height="42px" viewBox="0 0 42 42" version="1.1" xmlns="http://www.w3.org/2000/svg" xmlns:xlink="http://www.w3.org/1999/xlink">
    <!-- Generator: Sketch 53.2 (72643) - https://sketchapp.com -->
    <title>instagram2</title>
    <desc>Created with Sketch.</desc>
    <g id="Page-1" stroke="none" stroke-width="1" fill="none" fill-rule="evenodd">
        <g id="instagram2" fill-rule="nonzero">
            <path d="M32.8,40.8 L8.8,40.8 C4.4,40.8 0.8,37.2 0.8,32.8 L0.8,8.8 C0.8,4.4 4.4,0.8 8.8,0.8 L32.8,0.8 C37.2,0.8 40.8,4.4 40.8,8.8 L40.8,32.8 C40.8,37.2 37.2,40.8 32.8,40.8 Z" id="Path" stroke="#FFFFFF"></path>
            <path d="M29.4,20.8 C29.4,25.6 25.5,29.4 20.8,29.4 C16.1,29.4 12.2,25.5 12.2,20.8 C12.2,16.1 16.1,12.2 20.8,12.2 C25.5,12.2 29.4,16 29.4,20.8 Z" id="Path" stroke="#FFFFFF"></path>
            <path d="M34.4,8.6 C34,9 33.3,8.9 32.9,8.5 C32.5,8.1 32.5,7.4 33,7 C33.5,6.6 34.1,6.6 34.5,7.1 C34.9,7.6 34.9,8.2 34.4,8.6 Z" id="Path" stroke="#FFFFFF"></path>
        </g>
    </g>
</svg>