<?xml version="1.0" encoding="UTF-8"?>
<svg viewBox="0 0 456 143" version="1.1" xmlns="http://www.w3.org/2000/svg" xmlns:xlink="http://www.w3.org/1999/xlink">
    <title>RULE 58 bike shop logo</title>
    <g id="Page-1" stroke="none" stroke-width="1" fill="none" fill-rule="evenodd">
        <g id="RULE-58-BIKESHOP_BLACK" fill="#000000" fill-rule="nonzero">
            <g id="Group" transform="translate(0.000000, 54.000000)">
                <path d="M0,34.2 L8.4,34.2 L8.4,19.7 C9.6,19.7 10.3,19.9 10.5,20.3 C10.8,20.7 10.9,21.8 10.9,23.5 L10.9,34.2 L18.7,34.2 L18.7,25.7 C18.7,23.1 18.6,21.5 18.5,20.9 C18.4,20.3 18,19.7 17.4,19 C16.8,18.3 15.7,17.8 14.1,17.4 C15.9,17.2 17.1,16.7 17.8,15.8 C18.4,14.9 18.7,13.3 18.7,10.8 C18.7,8.1 18.2,6.1 17.4,4.8 C16.5,3.6 15.4,2.8 14,2.5 C12.6,2.2 9.9,2.1 6,2.1 L0.1,2.1 L0,34.2 Z M10.3,8 C10.7,8.3 10.8,9 10.9,10 L10.9,11.8 C10.9,13.2 10.7,14.1 10.3,14.3 C9.9,14.6 9.3,14.7 8.3,14.7 L8.3,7.6 C9.2,7.5 9.9,7.7 10.3,8 Z" id="Shape"></path>
                <path d="M36.5,2 L36.6,25.7 C36.6,27.3 36.5,28.3 36.4,28.7 C36.2,29.1 35.9,29.3 35.4,29.3 C34.9,29.3 34.6,29.1 34.5,28.7 C34.3,28.3 34.3,27.4 34.3,26 L34.2,1.9 L25.8,1.9 L25.8,20.9 C25.8,24.5 25.9,26.9 26,28 C26.1,29.1 26.6,30.2 27.3,31.2 C28,32.2 29.1,33 30.6,33.7 C32.1,34.3 33.8,34.6 35.7,34.6 C37.4,34.6 38.9,34.3 40.2,33.8 C41.5,33.3 42.5,32.5 43.3,31.4 C44.1,30.4 44.5,29.3 44.7,28.4 C44.9,27.4 44.9,25.7 44.9,23.3 L44.9,1.8 L36.5,2 Z" id="Path"></path>
                <polygon id="Path" points="52.2 1.9 52.3 34 65.7 34 65.7 27.6 60.6 27.6 60.5 1.9"></polygon>
                <polygon id="Path" points="71.8 34 86.3 34 86.3 27.6 80.2 27.6 80.2 20.5 85.4 20.5 85.4 14.4 80.2 14.4 80.2 8.3 85.8 8.3 85.8 1.9 71.9 1.9"></polygon>
                <path d="M259.6,33.6 L269.3,33.6 C272.7,33.6 274.9,33.4 276,33 C277.1,32.6 277.9,31.9 278.4,30.8 C278.9,29.8 279.1,28.1 279.1,26 L279.1,23 C279.1,20.9 278.7,19.4 278.1,18.3 C277.4,17.3 276.1,16.6 274.2,16.1 C275.9,15.7 277.1,15.1 277.7,14.4 C278.3,13.7 278.6,12.3 278.6,10.5 C278.6,7.7 278.2,5.7 277.3,4.5 C276.5,3.3 275.4,2.4 274,2 C272.6,1.6 270.6,1.4 268,1.4 L259.7,1.4 L259.6,33.6 Z M269.6,7.1 C269.9,7.2 270.1,7.5 270.3,7.9 C270.5,8.3 270.6,9 270.6,10 C270.6,11.9 270.5,13.1 270.3,13.5 C270.1,13.9 269.6,14.1 268.7,14.1 C268.5,14.1 268.2,14.1 267.9,14.1 L267.9,7 C268.7,7 269.3,7 269.6,7.1 Z M270.2,19.6 C270.5,19.9 270.6,20.7 270.6,22.1 L270.6,25.1 C270.6,26.4 270.4,27.2 270.1,27.5 C269.8,27.8 269,28 267.8,28.1 L267.8,19.1 C269.2,19.1 269.9,19.3 270.2,19.6 Z" id="Shape"></path>
                <polygon id="Path" points="286 1.4 286.1 33.5 294.5 33.5 294.4 1.4"></polygon>
                <polygon id="Path" points="313.9 1.4 310.2 13.9 310.2 1.4 301.8 1.4 301.9 33.5 310.3 33.5 310.3 19.7 313.7 33.5 322.3 33.5 317 15.9 321.8 1.4"></polygon>
                <polygon id="Path" points="327.8 33.5 342.3 33.5 342.3 27.1 336.2 27.1 336.2 20 341.4 20 341.4 13.9 336.2 13.9 336.2 7.8 341.8 7.8 341.8 1.4 327.9 1.4"></polygon>
                <path d="M377.6,9.7 C377.6,7.1 377.3,5.3 376.8,4.3 C376.3,3.2 375.3,2.4 373.8,1.7 C372.3,1 370.4,0.7 368.2,0.7 C366.2,0.7 364.5,1 363.1,1.7 C361.7,2.3 360.7,3.2 360.1,4.4 C359.5,5.5 359.2,7.3 359.2,9.8 C359.2,11.5 359.4,12.9 359.9,14 C360.3,15.1 360.9,16 361.6,16.6 C362.3,17.2 363.7,18.2 365.7,19.6 C367.8,21 369.1,21.9 369.6,22.5 C370.1,23.1 370.4,24.3 370.4,26.2 C370.4,27.1 370.3,27.7 370,28.1 C369.7,28.5 369.3,28.8 368.8,28.8 C368.2,28.8 367.9,28.6 367.6,28.3 C367.4,28 367.3,27.2 367.3,26 L367.3,22.1 L359.5,22.1 L359.5,24.2 C359.5,26.6 359.8,28.5 360.2,29.8 C360.7,31.1 361.7,32.2 363.3,33 C364.9,33.8 366.8,34.3 369,34.3 C371,34.3 372.8,33.9 374.4,33.2 C375.9,32.5 377,31.5 377.5,30.5 C378,29.4 378.3,27.7 378.3,25.4 C378.3,22.2 377.8,20 376.8,18.6 C375.8,17.2 373.5,15.4 369.8,13.2 C368.5,12.4 367.7,11.8 367.4,11.2 C367.1,10.7 367,9.8 367,8.8 C367,8 367.1,7.3 367.4,6.9 C367.7,6.5 368,6.3 368.5,6.3 C369,6.3 369.3,6.5 369.5,6.8 C369.7,7.1 369.8,7.8 369.8,8.9 L369.8,11.3 L377.6,11.3 L377.6,9.7 Z" id="Path"></path>
                <polygon id="Path" points="395.9 1.2 395.9 12.7 393.4 12.7 393.4 1.2 385 1.2 385.1 33.3 393.5 33.3 393.5 19.8 396 19.8 396 33.3 404.4 33.3 404.3 1.2"></polygon>
                <path d="M430.8,14.4 C430.8,11.1 430.7,8.8 430.5,7.5 C430.3,6.2 429.8,5 429,3.8 C428.2,2.7 427.1,1.8 425.7,1.3 C424.3,0.7 422.8,0.5 421.1,0.5 C419.3,0.5 417.7,0.8 416.3,1.4 C414.9,2 413.9,2.9 413.1,4 C412.3,5.1 411.8,6.3 411.7,7.7 C411.6,9 411.5,11.3 411.5,14.6 L411.5,20.1 C411.5,23.4 411.6,25.7 411.8,27 C412,28.3 412.5,29.5 413.3,30.7 C414.1,31.8 415.2,32.7 416.6,33.2 C418,33.8 419.5,34 421.2,34 C423,34 424.6,33.7 426,33.1 C427.4,32.5 428.4,31.6 429.2,30.5 C430,29.4 430.5,28.2 430.6,26.8 C430.7,25.5 430.8,23.2 430.8,19.9 L430.8,14.4 Z M422.4,24.2 C422.4,26.1 422.3,27.3 422.2,27.8 C422,28.3 421.7,28.6 421.1,28.6 C420.5,28.6 420.2,28.4 420,27.9 C419.8,27.5 419.8,26.3 419.8,24.4 L419.8,9.4 C419.8,7.7 419.9,6.7 420.1,6.4 C420.3,6.1 420.7,5.9 421.1,5.9 C421.6,5.9 422,6.1 422.1,6.5 C422.3,6.9 422.4,7.9 422.4,9.4 L422.4,24.2 Z" id="Shape"></path>
                <path d="M438,33.2 L446.4,33.2 L446.4,20.3 L448.6,20.3 C450.4,20.3 451.9,20 453,19.5 C454.1,19 454.9,18.3 455.3,17.3 C455.7,16.4 455.9,14.9 455.9,12.8 L455.9,10 C455.9,8 455.8,6.5 455.6,5.5 C455.4,4.5 455,3.7 454.3,3.1 C453.7,2.4 452.8,1.9 451.5,1.6 C450.3,1.2 448.5,1.1 446.2,1.1 L437.8,1.1 L438,33.2 Z M448.5,7.1 C448.8,7.4 449,8.1 449,9.2 L449,11.8 C449,13 448.9,13.8 448.6,14.2 C448.3,14.6 447.8,14.8 447,14.8 C446.8,14.8 446.6,14.8 446.4,14.8 L446.4,6.6 C447.4,6.6 448.1,6.7 448.5,7.1 Z" id="Shape"></path>
            </g>
            <g id="Group" transform="translate(99.000000, 0.000000)">
                <path d="M6.9,69.7 C10.7,68.6 14.5,68 18.2,68 C33.4,68 41,76.8 41,94.5 C41,103.9 39.2,111.3 35.6,116.8 C32,122.3 27.2,125 21.1,125 C16.8,125 11.5,123.3 5.1,120 L0.5,136.4 C8.4,140.2 15.7,142.1 22.4,142.1 C34.4,142.1 43.7,137.7 50.5,129 C57.2,120.1 60.6,107.9 60.6,92.5 C60.6,86.2 59.9,80.7 58.4,75.8 C56.9,70.9 54.7,66.8 51.9,63.5 C49,60.2 45.5,57.6 41.3,55.9 C37.1,54.2 32.3,53.3 26.9,53.3 L24.7,53.3 L29.2,18.6 L59,18.6 L59,2.6 L15.1,2.6 L6.9,69.7 Z" id="Path"></path>
                <path d="M129.7,55.2 C132,50.2 133.1,43.4 133.1,34.9 C133.1,29 132.5,23.9 131.4,19.6 C130.3,15.3 128.6,11.8 126.3,9 C124,6.2 121,4.2 117.5,2.9 C113.9,1.6 109.6,0.9 104.6,0.9 C99.6,0.9 95.3,1.6 91.7,2.9 C88.1,4.2 85.1,6.3 82.8,9 C80.5,11.8 78.8,15.3 77.7,19.6 C76.6,23.9 76,29 76,34.9 C76,43.4 77.1,50.2 79.4,55.2 C81.7,59.8 85.5,63.4 91,65.7 C84.8,68 80.5,71.6 78.2,76.5 C75.9,81.4 74.7,89.5 74.7,100.5 C74.7,114.8 77.1,125.3 81.9,132 C86.7,138.7 94.2,142.1 104.6,142.1 C114.8,142.1 122.4,138.7 127.2,132 C132,125.3 134.4,114.8 134.4,100.5 C134.4,89.4 133.2,81.4 130.9,76.5 C128.6,71.6 124.3,68 118.1,65.7 C123.6,63.4 127.4,59.9 129.7,55.2 L129.7,55.2 Z M104.6,57.7 C97.7,57.7 94.3,50.6 94.3,36.3 C94.3,23.4 97.7,17 104.5,17 C111.3,17 114.8,23.5 114.8,36.5 C114.8,50.6 111.4,57.7 104.6,57.7 L104.6,57.7 Z M104.6,125.9 C96.9,125.9 93.1,117.9 93.1,101.9 C93.1,92.7 94,86.1 95.8,82 C97.6,77.9 100.5,75.8 104.5,75.8 C106.5,75.8 108.3,76.3 109.7,77.3 C111.2,78.3 112.4,79.9 113.3,82 C114.3,84.1 114.9,86.9 115.4,90.4 C115.8,93.8 116,98 116,102.8 C116,118.2 112.2,125.9 104.6,125.9 L104.6,125.9 Z" id="Shape"></path>
            </g>
        </g>
    </g>
</svg>