<?xml version="1.0" encoding="utf-8"?>
<!-- Generator: Adobe Illustrator 24.0.3, SVG Export Plug-In . SVG Version: 6.00 Build 0)  -->
<svg version="1.1" id="Lager_1" xmlns="http://www.w3.org/2000/svg" xmlns:xlink="http://www.w3.org/1999/xlink" x="0px" y="0px"
	 viewBox="0 0 1000 1000" style="enable-background:new 0 0 1000 1000;" xml:space="preserve">
<style type="text/css">
	.st0{fill:#F2F2F2;}
</style>
<g>
	<path class="st0" d="M89.28,197.56c20.21,7.23,41.37,11.71,62.79,13.61c21.21,1.9,42.64,1.11,63.64-2.27
		c10.61-1.69,21.11-4.12,31.4-7.18c9.45-2.8,19.1-5.96,27.44-11.29c7.86-4.96,14.04-11.93,17.47-20.58
		c3.32-8.39,3.96-17.78,3.06-26.7c-1.74-18.2-8.81-35.78-16.94-51.98c-8.07-16.09-18.1-31.19-29.71-44.96
		c-11.61-13.77-24.85-26.17-39.26-36.88c-4.38-3.27-8.86-6.33-13.51-9.29h-6.7c2.48,1.48,4.96,3.01,7.39,4.64
		c14.72,9.66,28.34,21.05,40.47,33.88c12.14,12.77,22.8,26.96,31.66,42.21c8.86,15.2,16.46,31.71,20.68,48.86
		c4.17,16.83,4.85,36.99-7.7,50.6c-6.44,6.97-15.25,11.24-24.06,14.41c-9.66,3.48-19.63,6.23-29.71,8.39
		c-20.53,4.43-41.58,6.23-62.53,5.44c-20.95-0.79-41.79-4.17-61.95-10.08c-20.37-6.02-39.73-14.83-58.2-25.28
		C29.5,164.37,14.62,154.5,0,144.37v4.27c10.13,7.02,20.37,13.83,30.92,20.26C49.5,180.25,68.86,190.28,89.28,197.56z"/>
	<path class="st0" d="M68.23,353.54c-6.81,4.54-14.51,7.7-22.22,10.29c-14.77,4.91-30.39,7.12-45.96,6.44v3.48
		c13.88,0.58,27.81-1,41.16-4.75c8.5-2.37,16.94-5.54,24.64-9.87c6.6-3.69,12.98-8.6,16.89-15.2c4.75-7.97,4.38-17.2,2.01-25.91
		c-2.37-8.81-5.91-17.62-10.92-25.33c-9.08-13.93-23.59-23.17-39.21-28.34c-11.19-3.75-22.85-5.33-34.56-5.96v3.54
		c8.92,0.47,17.84,1.58,26.49,3.75c14.93,3.75,29.44,10.98,39.68,22.8c5.59,6.49,9.5,14.25,12.45,22.27
		c3.06,8.34,5.96,17.78,3.17,26.59C79.63,344.26,74.14,349.59,68.23,353.54z"/>
	<path class="st0" d="M191.86,540.82c3.48-16.09,1.58-32.77-4.01-48.18c-6.07-16.73-15.94-31.71-26.96-45.54
		c-10.55-13.3-22.64-26.01-37.68-34.19c-16.83-9.18-36.09-10.5-54.83-12.14c-20.42-1.79-40.89-3.54-61.32-5.33
		c-2.32-0.21-4.64-0.42-6.91-0.58v3.54c17.2,1.48,34.4,3.01,51.61,4.49c9.81,0.84,19.68,1.64,29.5,2.59
		c9.34,0.9,18.68,2.22,27.6,5.12c16.2,5.17,29.5,16.15,40.74,28.6c11.5,12.72,21.9,26.86,29.55,42.16
		c7.33,14.67,11.82,30.82,10.82,47.28c-0.9,14.93-6.17,30.02-16.73,40.95c-11.24,11.66-27.12,16.99-42.85,19.21
		c-16.78,2.37-34.19,1.85-51.03,0c-17.47-1.9-34.77-5.7-51.45-11.19c-9.5-3.11-18.79-6.81-27.81-11.03v3.9
		c4.91,2.27,9.92,4.38,14.99,6.33c16.89,6.49,34.46,11.13,52.35,13.93c17.57,2.74,35.57,3.8,53.3,2.59
		c16.2-1.16,32.98-4.59,46.49-14.04C180.2,570.21,188.54,556.22,191.86,540.82z"/>
	<path class="st0" d="M77.15,935.57c15.78-9.5,30.66-20.84,43.22-34.35c12.24-13.14,22.27-28.44,28.23-45.43
		c7.18-20.58,7.23-42.53,3.54-63.8c-3.64-20.84-10.13-41.32-18.73-60.63c-8.28-18.57-19-36.09-32.29-51.55
		c-13.24-15.36-29.18-28.39-47.12-37.89c-16.67-8.86-35.04-14.67-53.88-16.25v3.59c13.56,1.21,26.91,4.59,39.52,9.81
		c18.36,7.6,35.14,19,49.29,32.98c14.19,14.04,25.8,30.45,35.09,48.12c9.34,17.89,16.31,36.94,21.21,56.51
		c5.44,21.69,8.28,44.64,3.27,66.7c-3.9,17.2-12.24,33.14-23.22,46.86c-11.29,14.09-25.12,26.07-40.1,36.15
		c-15.88,10.66-33.03,19.15-50.82,26.12c-11.19,4.38-22.64,8.13-34.25,11.29v3.64c7.23-1.95,14.35-4.12,21.48-6.54
		C40.84,954.25,59.68,946.07,77.15,935.57z"/>
	<path class="st0" d="M352.65,979.53c-6.07-4.43-12.03-9.08-16.99-14.72c-10.13-11.56-12.14-27.23-19.52-40.37
		c-13.3-23.59-38.78-39.21-65.91-39.73c-14.14-0.26-28.44,3.32-40.74,10.29c-6.17,3.54-12.03,7.92-16.78,13.3
		c-4.96,5.65-8.28,12.24-9.5,19.68c-1.37,8.18-1.32,16.67-1.48,24.96c-0.16,8.71-0.16,17.47,0.11,26.17
		c0.16,6.97,0.47,13.93,0.9,20.9h3.54c-1.21-19.95-1.42-39.95-0.63-59.89c0.32-7.65,0.9-15.46,4.64-22.32
		c3.38-6.17,8.55-11.24,14.19-15.36c11.35-8.23,25.06-13.14,39.05-14.04c13.61-0.9,27.23,1.9,39.26,8.39
		c11.4,6.12,21.27,15.14,28.18,26.07c3.8,5.96,6.38,12.4,8.81,19c2.53,7.07,5.07,14.25,9.39,20.42c4.27,6.17,9.81,11.24,15.72,15.83
		c6.02,4.7,12.29,9.13,18.63,13.4c4.27,2.9,8.65,5.75,13.03,8.5h6.6c-3.64-2.22-7.23-4.49-10.76-6.81
		C365.68,988.81,359.08,984.28,352.65,979.53z"/>
	<path class="st0" d="M921.85,865.07c-16.46-13.72-36.41-22.27-57.46-25.96c-42.95-7.49-89.02,2.95-127.12,23.22
		c-20.26,10.82-38.31,25.12-53.4,42.48c-15.36,17.68-28.34,37.2-44.06,54.56c-13.56,14.99-28.81,29.02-45.64,40.63h6.02
		c9.34-6.7,18.15-14.09,26.38-21.95c15.94-15.14,29.55-32.14,42.85-49.55c14.51-18.94,29.71-36.83,49.34-50.6
		c18.31-12.88,38.89-22.37,60.31-28.76c20.74-6.17,42.37-9.5,64.06-8.71c21.37,0.79,42.79,5.86,61.37,16.67
		c20,11.66,34.83,29.76,48.39,48.23c16.73,22.69,34.25,46.38,47.12,71.98v-7.23c-9.71-18.15-21.53-35.35-33.4-51.82
		C953.14,899.53,939.74,880.01,921.85,865.07z"/>
	<path class="st0" d="M906.71,942.96c-6.7-3.75-13.77-6.97-21.11-9.23c-7.97-2.48-16.89-3.9-25.01-1.42
		c-8.07,2.48-12.72,8.97-18.94,14.14c-3.17,2.64-6.91,4.38-11.03,4.64c-4.06,0.26-8.07-0.79-11.87-2.16
		c-8.18-3.06-15.46-7.97-23.53-11.24c-7.76-3.17-16.2-4.59-24.54-4.54c-17.04,0.11-33.82,6.12-48.18,15.04
		c-15.2,9.45-27.97,22.37-39.79,35.67c-4.7,5.28-9.29,10.71-13.98,16.15h4.64c0.11-0.11,0.21-0.26,0.32-0.37
		c22.53-26.33,47.17-54.3,82.79-61.47c8.13-1.64,16.52-2.06,24.64-0.74c8.5,1.37,15.99,4.8,23.59,8.76
		c7.23,3.75,14.83,7.92,23.11,8.44c8.18,0.53,14.46-3.59,20.05-9.13c2.85-2.8,5.65-5.8,9.13-7.81c3.75-2.16,8.02-3.06,12.29-3.11
		c8.23-0.11,16.36,2.53,23.85,5.7c13.93,5.8,26.54,14.51,37.25,25.12c10.08,10.03,18.52,21.79,24.8,34.62h3.85
		c-4.7-9.97-10.71-19.37-17.73-27.91C931.67,960.42,919.9,950.4,906.71,942.96z"/>
	<path class="st0" d="M764.5,704.55c6.44-1.53,12.88-2.9,19.31-4.22c13.03-2.59,26.23-4.7,39.42-6.33
		c13.09-1.58,26.23-2.74,39.42-3.38c12.51-0.63,25.06-0.9,37.57,0c12.29,0.84,24.54,2.9,36.2,6.97c10.4,3.64,20.16,8.97,29.07,15.41
		c12.98,9.39,24.17,21,34.46,33.24v-5.44c-6.28-7.23-12.82-14.19-20-20.58c-8.07-7.28-16.89-13.83-26.49-18.94
		c-10.55-5.65-21.9-9.5-33.67-11.71c-12.4-2.32-25.06-3.06-37.68-3.01c-13.19,0.05-26.38,0.79-39.52,1.9
		c-26.7,2.32-53.24,6.54-79.36,12.72c-5.12,1.21-11.45,2.27-13.88,7.65c-2.22,4.8-1.11,10.87-0.05,15.83
		c2.01,10.03,6.6,19.47,12.66,27.65c13.4,18.05,32.93,29.6,53.93,36.67c23.48,7.92,48.23,10.66,72.45,15.3
		c23.48,4.49,46.7,11.08,66.54,24.85c16.94,11.77,30.71,27.6,42.11,44.64c1,1.48,1.95,3.01,2.96,4.54v-6.49
		c-8.28-12.4-17.68-24.06-28.71-34.09c-7.55-6.86-15.78-12.98-24.7-17.99c-10.4-5.86-21.63-10.08-33.09-13.3
		c-23.43-6.6-47.75-9.02-71.5-14.14c-22.37-4.8-45.06-12.08-62.85-27.02c-7.86-6.6-14.72-14.46-19.74-23.48
		c-2.43-4.38-4.33-9.02-5.7-13.88c-1.32-4.7-2.64-10.29-1.85-15.2C752.84,706.56,759.38,705.77,764.5,704.55z"/>
	<path class="st0" d="M943.33,187.27c-9.71-6.12-18.79-13.19-27.33-20.84c-8.65-7.7-17.31-15.83-24.27-25.06
		c-6.81-9.02-11.19-19.1-13.46-30.13c-2.22-10.71-2.59-21.69-2.8-32.61c-0.47-21.48-0.21-44.32-11.08-63.59
		c-3.17-5.59-7.18-10.55-11.87-14.88h-5.44c4.7,3.75,8.81,8.18,12.19,13.24c12.19,18.47,12.14,41.53,12.61,62.79
		c0.47,21.85,1.53,44.48,14.14,63.22c6.54,9.71,14.99,17.99,23.53,25.91c8.39,7.76,17.26,15.09,26.7,21.53
		c18.2,12.4,39.21,21.74,61.53,22.32c0.74,0,1.48,0,2.22,0v-3.54C979.74,205.53,960.42,197.98,943.33,187.27z"/>
	<path class="st0" d="M958.79,333.6c-6.6-11.29-7.33-24.17-9.66-36.73c-4.12-22.16-18.52-41.32-39.1-50.82
		c-20.47-9.45-44.59-7.39-63.69,4.38c-4.7,2.9-9.08,6.33-12.93,10.29c-4.17,4.22-7.33,9.13-10.76,13.93
		c-3.54,4.91-7.81,8.97-13.88,10.29c-5.44,1.16-11.19,0-16.2-2.16c-10.92-4.64-19.05-14.25-24.48-24.59
		c-5.65-10.71-8.65-22.74-9.87-34.77c-2.8-28.49,3.9-56.94,5.07-85.33c1.11-26.75-1.11-53.93-8.76-79.73
		c-6.23-21.21-16.25-41.16-30.24-58.26h-4.59c11.77,13.77,20.9,29.66,27.23,46.59c9.39,25.38,13.03,52.56,12.93,79.52
		c-0.05,13.93-1.16,27.81-2.69,41.69c-1.64,14.72-3.43,29.44-3.22,44.27c0.37,23.48,6.44,48.97,24.27,65.48
		c7.81,7.28,19.05,12.56,29.92,10.92c5.65-0.84,10.5-3.85,14.25-8.07c3.96-4.49,6.81-9.81,10.71-14.3
		c14.83-17.2,39.1-25.96,61.47-21.48c21.74,4.38,40.68,20.79,48.12,41.69c4.59,12.82,4.01,26.81,8.65,39.58
		c3.32,9.23,9.08,17.41,16.46,23.9c9.29,8.13,20.42,13.72,32.19,17.68v-3.69c-7.23-2.53-14.14-5.75-20.63-9.81
		C971.08,348.85,963.75,342.04,958.79,333.6z"/>
	<path class="st0" d="M857.53,417.29c-22.16,2.95-44.01,11.4-60.21,27.23c-7.23,7.07-13.09,15.51-16.73,24.91
		c-3.22,8.34-4.59,17.36-4.38,26.28c0.47,17.99,7.33,35.83,19.37,49.23c14.09,15.72,36.67,25.28,57.67,20.05
		c11.35-2.8,21.27-9.5,30.66-16.2c9.87-7.02,19.74-13.83,30.45-19.42c20.53-10.66,44.38-17.68,67.65-14.09
		c6.07,0.95,12.14,2.59,17.94,4.85v-3.75c-20.16-7.7-42.21-6.75-62.58-0.42c-11.4,3.54-22.32,8.65-32.66,14.67
		c-10.29,6.02-19.63,13.3-29.55,19.84c-9.66,6.38-20.21,11.87-32.03,12.29c-11.29,0.37-22.64-3.22-32.08-9.23
		c-14.88-9.5-25.01-25.33-29.23-42.27c-4.27-17.26-2.22-35.93,7.28-51.13c11.4-17.94,30.66-29.81,50.82-35.57
		c24.91-7.18,51.34-5.59,76.72-2.32c22.64,2.9,45.12,7.6,66.75,14.93c5.59,1.9,11.13,4.01,16.57,6.28v-3.9
		c-21.16-8.76-43.48-14.51-66.07-18.36C908.82,416.92,882.86,413.91,857.53,417.29z"/>
	<path class="st0" d="M371.27,71.61c28.86,9.87,60.26,11.4,85.69,29.71c22.11,15.88,37.89,40.53,42.58,67.38
		c2.9,16.41,1.69,33.93-5.07,49.29c-5.7,13.03-15.14,23.96-25.8,33.19c-11.08,9.6-23.53,17.47-36.09,24.96
		c-14.14,8.5-28.55,16.57-42.9,24.75c-51.03,29.13-104.27,62.11-132.97,115.46c-14.83,27.6-19.42,57.94-19.89,88.91
		c-0.53,35.04,2.32,70.02,5.38,104.85c2.74,31.03,4.8,62.95,15.99,92.34c9.55,25.12,26.07,46.38,47.54,62.48
		c46.65,34.98,107.22,41.05,162.84,28.07c63.64-14.88,118.73-51.66,170.44-90.07c25.75-19.15,50.82-39.68,78.15-56.62
		c13.46-8.34,27.6-15.67,42.58-20.74c16.2-5.49,33.14-8.02,50.13-8.81c16.67-0.79,33.4,0.05,50.08,1c14.77,0.9,29.6,1.85,44.32,3.38
		c29.5,3.06,59.1,8.23,86.7,19.42c3.01,1.21,5.96,2.53,8.86,3.9v-3.85c-41.26-18.79-88.49-23.22-133.34-26.01
		c-32.29-2.01-65.43-3.9-97.09,4.33c-29.76,7.7-56.09,24.48-80.73,42.37c-52.24,37.94-102.11,80.05-161.15,107.33
		c-55.35,25.54-119.94,37.78-178.51,15.83c-24.96-9.34-48.02-24.54-65.22-45.06c-19.58-23.32-28.6-52.29-33.03-82
		c-2.43-16.25-3.69-32.61-5.12-48.97c-1.48-17.1-2.9-34.19-3.9-51.29c-1.95-33.45-3.75-68.49,3.8-101.42
		c13.67-59.31,62.42-100.94,111.92-131.71c27.33-16.99,55.88-31.82,83.27-48.7c22.74-14.04,46.22-30.92,57.15-56.25
		c22-51.08-11.03-111.97-59.89-132.45c-27.86-11.66-60.89-11.29-86.49-28.34c-11.29-7.49-21.48-18.47-25.7-31.56
		c-2.96-9.18-2.27-18.47,1.53-26.7h-4.01c-2.43,5.54-3.54,11.71-2.8,18.68C323.2,45.33,347.84,63.64,371.27,71.61z"/>
	<path class="st0" d="M415.33,622.39c-10.55,7.76-22.43,13.56-33.93,19.74c-11.29,6.07-22.37,12.51-31.34,21.74
		c-8.39,8.6-15.46,19.31-17.99,31.19c-2.43,11.24-0.11,22.85,7.23,31.87c7.12,8.76,17.84,13.67,28.6,16.25
		c11.82,2.85,24.11,3.11,36.25,2.64c13.24-0.53,26.49-2.32,39.42-5.12c26.12-5.65,51.24-15.62,74.77-28.28
		c24.06-12.93,46.49-28.76,67.49-46.17c10.55-8.76,20.74-17.99,30.61-27.54c9.87-9.55,19.68-19.37,28.23-30.13
		c14.51-18.1,28.34-43.22,19.05-66.86c-3.43-8.65-10.03-15.99-19.63-17.31c-10.98-1.48-20.84-8.18-25.8-18.15
		c-2.32-4.64-3.32-9.97-2.59-15.09c0.95-6.44,4.7-11.71,8.92-16.52c4.22-4.7,8.55-9.18,12.24-14.3c3.27-4.54,6.12-9.39,8.55-14.46
		c4.8-10.08,7.86-20.84,9.29-31.87c2.85-22.11-0.95-45.17-11.35-64.9c-11.4-21.69-30.87-37.36-53.24-46.8
		c-24.27-10.29-51.03-13.67-77.2-14.41c-21.74-0.58-48.28,1.16-63.95,18.31c-8.65,9.5-11.29,21.85-12.66,34.25
		c-1.37,12.82-1.69,26.38-8.28,37.83c-11.4,19.79-36.2,26.65-57.62,26.33c-12.45-0.16-24.48-4.01-36.88-4.17
		c-11.61-0.16-23.17,4.33-27.91,15.62c-4.17,9.92-2.22,21.74,2.74,31.03c5.96,11.13,17.15,18.63,27.97,24.59
		c11.77,6.54,23.8,12.29,34.88,19.95c11.03,7.65,21.21,16.46,30.39,26.23c9.18,9.76,17.36,20.47,24.27,31.98
		c3.48,5.75,6.75,11.71,9.5,17.89c3.06,6.97,5.17,14.62,3.8,22.27C436.6,603.66,426.05,614.53,415.33,622.39z M442.35,578.02
		c-1.37-6.97-4.54-13.51-7.81-19.74c-3.01-5.8-6.38-11.4-9.97-16.89c-14.3-21.53-32.87-40.21-54.4-54.56
		c-10.92-7.28-22.74-12.72-34.09-19.21c-10.71-6.12-21.53-13.93-26.38-25.7c-3.9-9.5-4.64-22.11,2.64-30.24
		c8.86-9.92,23.53-8.07,35.3-6.12c11.4,1.9,22.53,3.38,34.14,2.11c10.61-1.11,21.21-3.96,30.5-9.34
		c9.08-5.22,16.67-12.98,20.9-22.64c5.17-11.82,5.33-24.85,6.81-37.47c1.48-12.4,5.01-24.48,14.77-32.93
		c8.44-7.33,19.58-10.76,30.45-12.51c11.82-1.9,23.96-1.74,35.88-1.11c13.03,0.69,26.01,2.11,38.73,4.85
		c24.64,5.28,49.02,15.72,66.43,34.46c15.14,16.31,23.69,38.15,25.38,60.21c1.69,21.95-3.22,44.59-15.2,63.22
		c-3.11,4.85-6.75,9.29-10.71,13.56c-4.49,4.8-9.18,9.71-11.77,15.88c-4.01,9.45-2.11,20.26,3.75,28.49
		c5.91,8.34,15.14,14.04,25.28,15.41c10.29,1.42,16.31,10.18,18.68,19.63c2.85,11.35,0.58,22.74-4.01,33.3
		c-5.38,12.51-13.77,23.53-22.8,33.67c-8.86,9.92-18.42,19.31-28.18,28.44c-19.68,18.42-40.68,35.46-63.22,50.23
		c-22.16,14.51-45.86,26.91-70.97,35.67c-24.85,8.65-51.03,13.61-77.36,13.67c-21.21,0-50.13-4.06-58.62-27.02
		c-8.71-23.53,10.98-48.12,29.5-60.31c21.11-13.88,46.59-22.06,63.95-41.21C439.03,604.08,444.99,591.58,442.35,578.02z"/>
	<path class="st0" d="M590.73,157.67c11.24,12.14,25.59,21.27,39.58,29.81c15.51,9.45,31.77,17.15,48.12,24.96
		c8.02,3.85,16.04,8.02,23.01,13.56c6.49,5.17,11.98,11.56,16.62,18.42c9.6,14.3,16.89,30.61,21.79,47.12
		c5.12,17.15,7.44,35.41,4.7,53.14c-2.32,15.14-8.55,29.18-15.99,42.48c-13.77,24.64-32.56,47.81-39.1,75.83
		c-6.75,28.97,4.06,57.62,24.7,78.36c23.38,23.43,56.2,33.56,88.28,37.57c38.31,4.8,77.09,1.37,115.4,5.96
		c27.91,3.38,55.25,10.24,82.11,18.63v-3.69c-17.57-5.44-35.35-10.24-53.4-13.83c-18.31-3.64-36.83-5.91-55.51-6.75
		c-19.47-0.9-38.94-0.69-58.41-1.48c-34.46-1.42-70.71-6.28-100.05-25.8c-25.17-16.78-44.01-45.43-41.53-76.51
		c2.32-29.13,21.16-53.77,35.67-77.99c7.23-12.08,13.98-24.7,18.1-38.2c4.75-15.62,5.33-32.08,2.96-48.18
		c-2.53-17.04-8.28-33.51-15.78-48.97c-7.12-14.67-15.94-29.02-28.97-39.15c-13.51-10.5-29.97-16.36-45.12-24.01
		c-16.09-8.13-31.82-17.36-46.49-27.91c-13.19-9.5-25.86-21.16-31.5-36.83c-5.86-16.36-3.69-33.93-0.21-50.55
		c3.54-16.89,8.55-33.56,9.97-50.82c0.9-10.87,0.32-21.85-1.53-32.56h-3.59c0.74,4.12,1.27,8.34,1.64,12.51
		c1.37,17.99-1.85,35.3-5.96,52.71c-3.85,16.41-8.28,33.24-7.44,50.23C573.64,131.6,579.86,145.96,590.73,157.67z"/>
	<path class="st0" d="M424.09,43.16c4.12,0.95,8.34,1.27,12.51,1.42c4.22,0.21,8.44,0.37,12.61,0.47
		c8.44,0.21,16.89,0.21,25.28-0.58c8.07-0.79,16.15-2.27,23.8-5.01c6.97-2.48,14.35-5.86,19.05-11.82
		c5.91-7.44,5.44-17.57,5.01-26.54c0-0.32-0.05-0.69-0.05-1h-3.54c0.16,3.11,0.21,6.28,0.21,9.39c-0.05,3.75-0.32,7.55-1.58,11.08
		c-2.37,6.54-8.6,10.5-14.62,13.3c-7.12,3.22-14.77,5.22-22.48,6.38c-7.65,1.16-15.41,1.42-23.11,1.42
		c-7.81,0-15.67-0.26-23.48-0.74c-7.33-0.47-14.51-2.01-20.21-6.97c-4.91-4.27-8.39-10.03-10.5-16.15
		c-1.95-5.7-2.85-11.71-3.27-17.73h-3.64c0.26,3.54,0.74,7.02,1.37,10.45C400.14,25.12,408.74,39.58,424.09,43.16z"/>
	<path class="st0" d="M109.81,106.22c6.7,0.53,13.51,0.47,20.21-0.32c6.07-0.74,12.45-1.74,17.99-4.54
		c5.59-2.85,9.18-7.86,10.13-14.04c1-6.23,0.05-12.72-1.9-18.68c-3.96-12.14-11.98-22.53-20.42-31.92
		c-8.28-9.29-17.47-17.78-27.28-25.38C103.42,7.33,98.1,3.59,92.61,0.11h-6.7c4.22,2.53,8.39,5.22,12.4,8.07
		c9.81,6.86,19,14.62,27.44,23.06c8.65,8.65,17.1,18.1,22.95,28.92c2.9,5.38,5.12,11.19,5.96,17.26c0.79,5.8,0.58,12.77-3.64,17.36
		c-3.96,4.27-10.03,5.75-15.57,6.75c-6.38,1.16-12.93,1.64-19.42,1.48c-26.7-0.63-52.13-11.29-75.09-24.22
		C27.07,70.97,13.72,62.21,0.11,53.82v4.17c10.98,6.81,21.85,13.83,32.98,20.37C56.62,92.18,82.32,103.95,109.81,106.22z"/>
	<path class="st0" d="M323.89,75.09c8.44,8.34,17.78,15.57,26.38,23.75c17.15,16.41,30.82,36.99,38.36,59.57
		c7.44,22.27,8.86,47.54-2.27,68.86c-10.45,20-29.34,34.19-48.86,44.59c-21.48,11.45-45.27,18.52-69.55,20.63
		c-13.3,1.16-26.65,0.58-39.47-3.38c-12.35-3.8-24.01-9.6-35.93-14.56c-24.33-10.08-49.02-19.26-73.77-28.28
		C80.79,232.44,40.79,219.51,0.11,217.4v3.59c35.57,1.95,70.81,12.19,104.32,23.9c25.01,8.65,49.87,17.99,74.51,27.81
		c12.24,4.85,24.22,10.29,36.41,15.3c12.03,4.91,24.27,8.13,37.36,8.44c24.7,0.63,49.92-5.22,72.56-14.88
		c20.58-8.81,40.95-21.32,55.14-38.94c6.91-8.6,12.19-18.36,14.99-29.08c2.95-11.24,3.27-23.06,1.74-34.56
		c-3.17-23.43-13.77-45.7-28.02-64.38c-7.28-9.55-15.62-17.94-24.59-25.8c-9.13-8.02-18.68-15.78-26.33-25.28
		c-13.88-17.26-20.63-39.95-19.15-62c0.05-0.42,0.11-0.9,0.11-1.32h-3.54c-1.32,16.31,1.74,32.87,8.71,47.75
		C309.11,58.2,315.87,67.17,323.89,75.09z"/>
	<path class="st0" d="M443.35,961.64c-8.97-10.29-16.57-21.42-23.43-33.19c-6.54-11.19-12.61-22.69-19.74-33.56
		c-5.96-9.18-12.72-17.84-20.16-25.86c-15.04-16.15-33.09-29.81-53.4-38.63c-19.52-8.5-40.79-12.4-62.05-10.18
		c-20.1,2.06-39.95,9.08-56.2,21.27c-8.18,6.12-15.41,13.46-21.21,21.9c-6.38,9.23-10.98,19.58-15.3,29.87
		c-4.49,10.76-8.65,21.69-14.35,31.87c-5.91,10.61-13.61,19.79-23.27,27.18c-9.5,7.28-20.16,12.93-30.92,18.05
		c-12.08,5.8-24.48,11.03-37.15,15.46c-21.32,7.44-43.59,12.61-66.12,13.61v0.58h26.54c6.07-1.06,11.98-2.37,17.89-3.85
		c24.8-6.38,49.07-16.2,71.66-28.23c10.34-5.49,20.37-11.93,28.81-20.16c8.13-7.92,14.19-17.41,19.15-27.54
		c9.92-20.32,15.88-43.06,30.5-60.79c27.12-32.87,74.56-43.16,114.45-31.61c21.37,6.17,40.84,17.89,57.25,32.72
		c17.73,15.99,30.87,35.3,42.64,55.93c6.49,11.4,12.88,22.95,20.58,33.56c7.6,10.5,16.41,20,25.43,29.29
		c6.75,6.91,13.51,13.83,20.32,20.68h5.07c-3.11-3.11-6.23-6.28-9.29-9.39C461.66,981.11,452.17,971.72,443.35,961.64z"/>
	<path class="st0" d="M477.23,543.24c1.74,3.75,3.27,7.76,3.43,11.98c0.16,3.32-0.47,6.54-1.58,9.6
		c-2.27,6.54-6.12,12.35-9.08,18.57c-2.64,5.59-5.49,12.77-3.48,19c1.95,6.12,7.39,10.61,12.56,13.93c2.59,1.64,5.28,3.06,8.02,4.38
		c0.21,0.16,0.47,0.32,0.79,0.37c26.86,4.49,53.77-9.34,69.34-31.03c7.86-10.98,12.51-24.01,13.19-37.52
		c0.63-13.56-2.64-27.18-8.65-39.31c-6.07-12.14-14.93-22.8-25.7-31.03c-5.49-4.17-11.5-7.65-17.89-10.34
		c-7.44-3.11-15.62-5.22-23.75-4.54c-7.49,0.69-14.41,3.9-19.47,9.55c-4.54,5.07-7.55,11.5-8.81,18.2
		c-1.53,7.92-0.74,16.04,1.32,23.8C469.63,527.41,473.54,535.22,477.23,543.24z M484.51,473.75c13.3-7.07,30.08-0.79,42,6.33
		c11.13,6.65,20.58,15.99,27.54,26.86c13.98,21.79,17.57,49.92,5.12,73.24c-11.77,22-35.67,38.26-61,38.2
		c-3.11,0-6.23-0.26-9.29-0.74c-5.59-2.59-11.13-5.8-15.3-10.34c-1.85-2.06-3.48-4.49-4.01-7.23c-0.53-2.9,0.26-6.07,1.11-8.86
		c3.8-12.19,14.14-22.58,13.56-36.04c-0.37-8.07-4.8-15.25-8.02-22.43c-3.38-7.55-6.28-15.62-7.12-23.9
		C467.68,495.65,472.06,480.4,484.51,473.75z"/>
</g>
</svg>
